<svg width="47" height="28" viewBox="0 0 47 28" fill="none" xmlns="http://www.w3.org/2000/svg">
<path d="M26.9232 0.506714H0.352539V27.0447H26.9232V0.506714Z" fill="#131515"/>
<path d="M12.9222 11.1007V16.6283C12.9222 17.8814 12.8525 18.8003 12.7131 19.3712C12.5737 19.942 12.2949 20.4851 11.8628 20.9863C11.4306 21.4875 10.9148 21.8495 10.3014 22.0584C9.68802 22.2812 9.01888 22.3786 8.26609 22.3786C7.27631 22.3786 6.45381 22.2672 5.79861 22.0305C5.1434 21.8078 4.6276 21.4458 4.23726 20.9584C3.84693 20.4711 3.56812 19.956 3.40083 19.4269C3.23355 18.8839 3.1499 18.0345 3.1499 16.865V11.0728C3.1499 9.54127 3.28931 8.41348 3.54024 7.64769C3.80511 6.89583 4.33485 6.2832 5.11552 5.82373C5.89619 5.36425 6.84415 5.14148 7.95939 5.14148C8.86553 5.14148 9.67408 5.29464 10.399 5.61487C11.11 5.93511 11.6536 6.32497 12.0161 6.78444C12.3646 7.24391 12.6155 7.75908 12.741 8.32994C12.8665 8.91472 12.9222 9.83366 12.9222 11.1007ZM8.78189 9.69443C8.78189 8.81725 8.74007 8.26032 8.65642 8.03754C8.57278 7.81477 8.36367 7.70338 8.05698 7.70338C7.75029 7.70338 7.54118 7.81477 7.4436 8.05147C7.34601 8.30209 7.30419 8.8451 7.30419 9.69443V17.7978C7.30419 18.7586 7.34601 19.3433 7.4436 19.5383C7.52724 19.7332 7.73635 19.8307 8.04304 19.8307C8.34973 19.8307 8.5449 19.7193 8.64248 19.4826C8.74007 19.2459 8.78189 18.7307 8.78189 17.9092V9.69443Z" fill="white"/>
<path d="M23.3073 5.47656V8.13593H18.1772V10.9485C18.8184 10.1827 19.6549 9.80674 20.6586 9.80674C21.8017 9.80674 22.666 10.127 23.2515 10.7675C23.837 11.4079 24.1298 12.6332 24.1298 14.4572V16.8241C24.1298 17.9937 24.074 18.857 23.9625 19.4139C23.851 19.9569 23.6 20.4721 23.2376 20.9455C22.8751 21.4189 22.3593 21.7669 21.6902 22.0176C21.035 22.2682 20.2264 22.3935 19.2785 22.3935C18.205 22.3935 17.271 22.2125 16.4625 21.8366C15.6539 21.4606 15.0684 20.9037 14.7199 20.1658C14.3714 19.4278 14.2041 18.2861 14.2041 16.7406V15.8356H18.3444V16.8659C18.3444 17.938 18.3863 18.7038 18.456 19.1493C18.5257 19.5949 18.7905 19.8316 19.2366 19.8316C19.4458 19.8316 19.5991 19.762 19.7385 19.6367C19.864 19.5114 19.9337 19.3721 19.9476 19.219C19.9616 19.0658 19.9755 18.4114 19.9894 17.2558V13.9698C19.9894 13.3433 19.9197 12.9256 19.7943 12.7028C19.6688 12.48 19.4458 12.3686 19.153 12.3686C18.9578 12.3686 18.8045 12.4243 18.679 12.5497C18.5536 12.661 18.4699 12.7863 18.4281 12.9256C18.3863 13.0648 18.3723 13.3711 18.3723 13.8585H14.2738L14.455 5.49049H23.3073V5.47656Z" fill="white"/>
<path d="M28.4285 18.6897V22.073H25.292V18.6897H28.4285Z" fill="#E10718"/>
<path d="M33.7136 8.46998L33.5463 10.2522C34.1457 8.97122 35.024 8.28898 36.1671 8.21936V13.009C35.4143 13.009 34.8567 13.1065 34.4943 13.3153C34.1318 13.5242 33.9227 13.8026 33.8391 14.1646C33.7554 14.5267 33.7136 15.376 33.7136 16.6987V22.0731H29.5732V8.46998H33.7136Z" fill="#E10718"/>
<path d="M46.5793 8.47144V22.0746H42.3692L42.4389 20.9468C42.1601 21.4063 41.7977 21.7543 41.3795 21.9771C40.9612 22.1999 40.4733 22.3252 39.9296 22.3252C39.3023 22.3252 38.7865 22.2138 38.3822 21.991C37.978 21.7683 37.6713 21.4759 37.4761 21.1139C37.2809 20.7519 37.1555 20.3759 37.1136 19.9861C37.0579 19.5962 37.0439 18.8165 37.0439 17.6469V8.47144H41.1843V17.7305C41.1843 18.7887 41.2122 19.4152 41.2819 19.6101C41.3516 19.8051 41.5189 19.9025 41.8116 19.9025C42.1183 19.9025 42.2995 19.8051 42.3553 19.5962C42.4111 19.3874 42.4389 18.733 42.4389 17.6191V8.47144H46.5793Z" fill="#E10718"/>
</svg>
