<?xml version="1.0" encoding="UTF-8" standalone="no"?>
<!DOCTYPE svg PUBLIC "-//W3C//DTD SVG 1.1//EN" "http://www.w3.org/Graphics/SVG/1.1/DTD/svg11.dtd">
<svg width="100%" height="100%" viewBox="0 0 24 24" version="1.1" xmlns="http://www.w3.org/2000/svg" xmlns:xlink="http://www.w3.org/1999/xlink" xml:space="preserve" xmlns:serif="http://www.serif.com/" style="fill-rule:evenodd;clip-rule:evenodd;stroke-linejoin:round;stroke-miterlimit:2;">
    <g id="Artboard1" transform="matrix(0.903252,0,0,0.904364,-0.318432,-0.458254)">
        <rect x="0.353" y="0.507" width="26.571" height="26.538" style="fill:none;"/>
        <clipPath id="_clip1">
            <rect x="0.353" y="0.507" width="26.571" height="26.538"/>
        </clipPath>
        <g clip-path="url(#_clip1)">
            <g transform="matrix(1,0,0,0.99877,0,0.000623126)">
                <path d="M26.923,13.774C26.923,10.256 25.525,6.881 23.037,4.393C20.549,1.905 17.174,0.507 13.656,0.507L13.62,0.507C10.101,0.507 6.727,1.905 4.239,4.393C1.75,6.881 0.353,10.256 0.353,13.774L0.353,13.777C0.353,17.296 1.75,20.671 4.239,23.159C6.727,25.647 10.101,27.045 13.62,27.045L13.656,27.045C17.174,27.045 20.549,25.647 23.037,23.159C25.525,20.671 26.923,17.296 26.923,13.777L26.923,13.774Z" style="fill:rgb(0,173,164);fill-rule:nonzero;"/>
            </g>
        </g>
    </g>
</svg>
