<svg width="78" height="27" viewBox="0 0 78 27" fill="none" xmlns="http://www.w3.org/2000/svg">
<path d="M0.5 4.78125C0.5 2.41678 2.41678 0.5 4.78125 0.5H22.2188C24.5832 0.5 26.5 2.41678 26.5 4.78125V22.2188C26.5 24.5832 24.5832 26.5 22.2188 26.5H4.78125C2.41678 26.5 0.5 24.5832 0.5 22.2188V4.78125Z" stroke="black"/>
<path d="M11.7448 14.7776C11.672 15.4764 11.3873 16.0223 10.8908 16.4152C10.3942 16.8051 9.73386 17 8.90963 17C8.33366 17 7.82555 16.877 7.3853 16.6311C6.94836 16.3822 6.61072 16.0298 6.37239 15.5739C6.13406 15.118 6.00993 14.5887 6 13.9859V13.374C6 12.7562 6.12082 12.2119 6.36246 11.741C6.6041 11.2701 6.95002 10.9072 7.4002 10.6523C7.85369 10.3974 8.3767 10.2699 8.96922 10.2699C9.76696 10.2699 10.4091 10.4664 10.8957 10.8593C11.3823 11.2521 11.6653 11.807 11.7448 12.5238H10.4935C10.434 12.0529 10.2817 11.714 10.0367 11.5071C9.7951 11.2971 9.43926 11.1922 8.96922 11.1922C8.42304 11.1922 8.00265 11.3736 7.70804 11.7365C7.41675 12.0964 7.26779 12.6257 7.26117 13.3246V13.9049C7.26117 14.6127 7.4002 15.1525 7.67825 15.5244C7.95962 15.8963 8.37008 16.0823 8.90963 16.0823C9.40285 16.0823 9.77359 15.9818 10.0218 15.7808C10.2701 15.5799 10.4273 15.2455 10.4935 14.7776H11.7448Z" fill="black"/>
<path d="M14.2671 10.8593V12.0424H15.2155V12.8522H14.2671V15.5694C14.2671 15.7554 14.3069 15.8903 14.3863 15.9743C14.4691 16.0553 14.6147 16.0958 14.8232 16.0958C14.9623 16.0958 15.1029 16.0808 15.2453 16.0508V16.8965C14.9705 16.9655 14.7057 17 14.4508 17C13.524 17 13.0606 16.5366 13.0606 15.6099V12.8522H12.1768V12.0424H13.0606V10.8593H14.2671Z" fill="black"/>
<path d="M18.9543 13.0411C18.7954 13.0171 18.6316 13.0051 18.4628 13.0051C17.91 13.0051 17.5376 13.1971 17.3456 13.581V16.91H16.139V12.0424H17.291L17.3208 12.5868C17.612 12.1639 18.0159 11.9524 18.5323 11.9524C18.7044 11.9524 18.8467 11.9734 18.9593 12.0154L18.9543 13.0411Z" fill="black"/>
<path d="M21 16.91H19.7934V10H21V16.91Z" fill="black"/>
<path d="M51.5 4.78125C51.5 2.41678 53.4168 0.5 55.7812 0.5H73.2188C75.5832 0.5 77.5 2.41678 77.5 4.78125V22.2188C77.5 24.5832 75.5832 26.5 73.2188 26.5H55.7812C53.4168 26.5 51.5 24.5832 51.5 22.2188V4.78125Z" stroke="black"/>
<path d="M63.1627 14.399V17H62V10H64.5597C65.3073 10 65.9001 10.2035 66.3382 10.6106C66.7794 11.0176 67 11.5561 67 12.226C67 12.9119 66.784 13.4455 66.352 13.8269C65.9231 14.2083 65.3211 14.399 64.546 14.399H63.1627ZM63.1627 13.4231H64.5597C64.9733 13.4231 65.2889 13.3221 65.5064 13.1202C65.724 12.9151 65.8327 12.6202 65.8327 12.2356C65.8327 11.8574 65.7224 11.5561 65.5018 11.3317C65.2813 11.1042 64.9779 10.9872 64.5919 10.9808H63.1627V13.4231Z" fill="black"/>
<path d="M39.73 12.9155H42.1421V14.3247H39.73V17.0732H38.2319V14.3247H35.8071V12.9155H38.2319V10.3447H39.73V12.9155Z" fill="black"/>
</svg>
