<svg width="8" height="8" viewBox="0 0 8 8" fill="none" xmlns="http://www.w3.org/2000/svg">
<path d="M4.33362 2.26756C4.33988 2.45113 4.20533 2.5982 3.99046 2.5982C3.80063 2.5982 3.66504 2.45113 3.66504 2.26756C3.66504 2.07773 3.80585 1.93066 4.00194 1.93066C4.20533 1.93066 4.33362 2.07773 4.33362 2.26756ZM3.73284 6.06939V3.10198H4.27208V6.07043H3.73284V6.06939Z" fill="#FF4C4C"/>
<path d="M4 8C1.794 8 0 6.206 0 4C0 1.794 1.794 0 4 0C6.206 0 8 1.794 8 4C8 6.206 6.206 8 4 8ZM4 0.312907C1.96714 0.312907 0.312907 1.96714 0.312907 4C0.312907 6.03286 1.96714 7.68709 4 7.68709C6.03286 7.68709 7.68709 6.03286 7.68709 4C7.68709 1.96714 6.03286 0.312907 4 0.312907Z" fill="#FF4C4C"/>
</svg>
