<svg width="32" height="23" viewBox="0 0 32 23" fill="none" xmlns="http://www.w3.org/2000/svg">
<path d="M31.9812 15.259C31.9061 14.475 31.613 13.7142 31.1335 13.0586C30.8588 12.6835 30.5282 12.3483 30.1513 12.063C29.1466 11.3017 27.8515 10.9048 26.5056 10.9467C26.5024 10.9467 26.4987 10.9468 26.4957 10.9472L26.1959 10.9649C25.4612 11.0227 24.7226 11.2208 24.0591 11.5377C24.0563 11.539 24.0537 11.5403 24.0502 11.542C23.8204 11.6597 23.7475 11.7003 23.7196 11.717C21.6443 12.8692 20.108 13.3378 19.0709 13.5139C19.5246 12.541 20.3914 11.1574 22.0477 9.43293C22.0712 9.40992 22.1292 9.34895 22.3037 9.15538C22.3056 9.15297 22.3082 9.15074 22.3097 9.14796C22.7911 8.58267 23.1823 7.90936 23.4435 7.19504L23.5412 6.91109C23.5428 6.90775 23.5436 6.90469 23.5444 6.90144C24.118 5.08047 23.8525 3.09999 22.8517 1.73269C22.8514 1.73223 22.8514 1.73223 22.8514 1.73223C22.5158 1.27402 22.1048 0.894399 21.629 0.603771C20.8079 0.103432 19.8244 -0.0958875 18.8588 0.0432092C17.9687 0.170892 17.0989 0.569809 16.3449 1.19625C15.9112 1.55685 15.5241 1.98722 15.1972 2.47012C14.7563 3.16727 14.5466 3.66251 14.4315 4.00408C13.7933 5.86448 14.0266 7.92189 15.0539 9.32492C15.2285 9.5633 15.4264 9.7848 15.6426 9.98291C15.763 10.0938 15.8894 10.1974 16.0202 10.2917L14.5323 13.8333L3.22421 15.8799C3.18342 15.8859 3.14228 15.8921 3.10114 15.8979C2.84596 15.936 2.5812 15.975 2.31399 16.0795C1.3252 16.4656 0.75769 17.3832 0.456394 18.0844C0.309997 18.4253 0.214689 18.7119 0.157992 18.9854L0.00815862 19.6871C-0.0162561 19.8008 0.0149406 19.9178 0.090807 20.004C0.167035 20.0895 0.278619 20.1315 0.390474 20.1174L12.7077 18.5307L10.8993 23H15.2738L17.6369 17.8808L21.2359 17.4179C21.3797 17.8496 21.5888 18.2538 21.8597 18.6237C22.8397 19.9627 24.5819 20.7758 26.4072 20.7462C28.5038 20.712 30.41 19.6391 31.3813 17.9466C31.8549 17.1216 32.0675 16.1674 31.9812 15.259ZM17.6665 7.96402C17.5245 7.86528 17.3986 7.74168 17.2924 7.59665C16.8429 6.98301 16.8129 6.09804 16.9339 5.47475C17.1034 4.60537 17.5715 3.82434 18.2173 3.333C18.8144 2.87868 19.4927 2.75007 20.0314 2.9892L20.0317 2.98929C20.0323 2.98929 20.0326 2.98939 20.0334 2.98966C20.264 3.09211 20.4612 3.2532 20.6189 3.46764C20.959 3.9329 21.111 4.67209 21.015 5.39699C20.8879 6.35619 20.3822 7.24422 19.6622 7.77258C19.1528 8.14608 18.3252 8.42009 17.6665 7.96402ZM29.1914 15.8341C29.1582 16.1588 29.0163 16.4853 28.7822 16.7779C28.2699 17.4179 27.3999 17.8258 26.4545 17.8684C25.6873 17.903 24.6699 17.6692 24.1146 16.911C24.0946 16.8837 24.0759 16.8561 24.0575 16.828C23.6928 16.2703 23.7485 15.5326 24.1985 14.9476C24.6404 14.3726 25.374 13.9743 26.2114 13.8547L26.3079 13.8421C27.0928 13.7532 28.1615 13.9241 28.8096 14.6717C28.8398 14.7063 28.868 14.7424 28.8953 14.7792C29.1241 15.0922 29.2294 15.4668 29.1914 15.8341Z" fill="#E0E0E0"/>
</svg>
