<svg width="65" height="25" viewBox="0 0 65 25" fill="none" xmlns="http://www.w3.org/2000/svg">
<path fill-rule="evenodd" clip-rule="evenodd" d="M12.3657 0H9.11193V6.01025C8.00884 6.01025 6.85506 6.00784 6.17439 6.00784C2.76375 6.00784 0 8.77159 0 12.1846C0 15.5929 2.76375 18.3566 6.17439 18.3566C9.58502 18.3566 12.3633 15.5904 12.3633 12.1822C12.3633 10.4757 12.3657 6.00301 12.3657 6.00301V0ZM9.11193 12.1846C9.11193 13.8067 7.79643 15.1222 6.17439 15.1222C4.54993 15.1222 3.23443 13.8067 3.23443 12.1846C3.23443 10.5602 4.54993 9.24468 6.17439 9.24468H9.10951L9.11193 12.1846Z" fill="black"/>
<path fill-rule="evenodd" clip-rule="evenodd" d="M39.0161 12.1822C39.0161 8.77157 41.7798 6.01023 45.188 6.01023C48.5987 6.01023 51.3624 8.77398 51.3624 12.1822C51.3624 15.5904 48.5987 18.3542 45.188 18.3542C41.7798 18.3542 39.0161 15.5904 39.0161 12.1822ZM45.176 15.1318C46.8028 15.1318 48.128 13.8115 48.128 12.1846C48.128 10.5553 46.8052 9.23501 45.176 9.23501C43.5491 9.23501 42.2288 10.5553 42.2288 12.1846C42.2288 13.8115 43.5491 15.1318 45.176 15.1318Z" fill="black"/>
<path fill-rule="evenodd" clip-rule="evenodd" d="M61.7461 12.1895C61.7461 10.5771 60.4403 9.27123 58.8303 9.27123C57.2179 9.27123 55.9121 10.5771 55.9121 12.1895C55.9121 12.9812 55.9121 18.1056 55.9121 18.1056C54.2562 18.108 52.6559 18.108 52.6559 18.108C52.6559 18.108 52.6559 13.8936 52.6559 12.1895C52.6559 8.77883 55.4197 6.01749 58.8303 6.01749C62.2385 6.01749 64.9974 8.78124 64.9974 12.1895C64.9974 13.9274 64.9999 18.1007 64.9999 18.1007C64.9999 18.1007 63.3995 18.1007 61.7461 18.1007C61.7461 18.1032 61.7461 13.0005 61.7461 12.1895Z" fill="black"/>
<path fill-rule="evenodd" clip-rule="evenodd" d="M31.4173 10.0388C30.9442 9.72982 31.0986 9.16018 31.8614 8.95259C32.8703 8.67501 34.5334 8.89949 36.0251 9.55603L37.5627 7.45848C36.8941 6.9009 35.4603 6.18884 33.3362 6.05367C33.3362 6.05367 29.7856 5.61195 28.3494 8.30812C28.3494 8.30812 27.0773 10.8281 29.5876 12.3946C31.1131 13.348 33.7658 13.686 34.5696 14.1398C35.2551 14.526 35.0282 15.2525 34.0145 15.4818C32.3321 15.8608 30.0704 14.9025 29.3125 14.3353L27.758 16.4787C28.7983 17.2825 30.138 17.9704 32.2572 18.318C32.2572 18.318 35.5955 18.8948 37.4347 16.5994C37.7751 16.1745 39.2861 13.3432 36.2496 11.726C34.7386 10.9198 32.2162 10.5577 31.4173 10.0388Z" fill="black"/>
<path fill-rule="evenodd" clip-rule="evenodd" d="M16.2494 20.5145C16.3845 20.5966 17.9028 21.6369 19.3728 21.6683C22.9065 21.7431 23.131 18.0646 23.131 17.1932C22.4527 17.9077 21.0721 18.3542 20.2128 18.3542C16.8021 18.3542 14.0673 15.6846 14.0673 12.274C14.0673 10.5867 14.0673 6.24681 14.0673 6.24681C14.0673 6.24681 15.6556 6.24922 17.3162 6.25164C17.3162 6.25164 17.3211 11.5402 17.3211 12.274C17.3211 13.8839 18.6269 15.1898 20.2369 15.1898C21.8493 15.1898 23.1503 13.8839 23.1503 12.274C23.1503 11.615 23.1527 6.25164 23.1527 6.25164C24.8158 6.24922 26.4113 6.24681 26.4113 6.24681L26.4089 12.274C26.4089 17.6156 26.6695 23.1021 21.4679 24.3427C17.548 25.2793 14.7794 22.8245 14.6418 22.7134L16.2494 20.5145Z" fill="black"/>
</svg>
