<svg width="105" height="22" viewBox="0 0 105 22" fill="none" xmlns="http://www.w3.org/2000/svg">
<path d="M2.04038 8.48562C2.13688 10.2708 3.47878 11.3293 3.47878 11.3293C5.64393 13.4371 10.8849 16.1028 12.1002 16.709C12.1183 16.712 12.1816 16.7331 12.2178 16.6878C12.2178 16.6878 12.269 16.6456 12.2419 16.5793C8.90672 9.29378 4.34424 3.76935 4.34424 3.76935C4.34424 3.76935 1.86246 6.12447 2.04038 8.48562Z" fill="#E52428"/>
<path d="M2.57227 18.7143C3.51914 20.403 5.11435 21.7118 6.77289 21.3077C7.91878 21.0242 10.5151 19.2119 11.3716 18.5997H11.3685C11.4319 18.5364 11.4108 18.4912 11.4108 18.4912C11.3897 18.4158 11.2992 18.4158 11.2992 18.4158V18.4128L2.57227 18.7143Z" fill="#E52428"/>
<path d="M0.482127 14.7972C1.429 16.7965 3.2353 17.4026 3.2353 17.4026C4.07361 17.7433 4.9059 17.7674 4.9059 17.7674C5.03556 17.7916 10.0926 17.7705 11.4496 17.7644C11.5069 17.7644 11.537 17.7071 11.537 17.7071C11.5823 17.6378 11.5069 17.5775 11.5069 17.5775C7.67414 14.9902 0.249932 11.0217 0.249932 11.0217C-0.425545 13.1115 0.482127 14.7972 0.482127 14.7972Z" fill="#E52428"/>
<path d="M7.85838 2.96124C7.43621 4.28204 7.87045 5.72949 7.87045 5.72949C8.64242 9.14909 12.4359 14.773 13.2501 15.9521C13.3074 16.0094 13.3527 15.9853 13.3527 15.9853C13.4401 15.9642 13.4341 15.8767 13.4341 15.8767H13.4371C14.6916 3.32914 12.1193 0 12.1193 0C11.7394 0.0361863 10.7171 0.268381 10.7171 0.268381C8.40419 0.86847 7.85838 2.96124 7.85838 2.96124Z" fill="#E52428"/>
<path d="M14.9419 15.8888C14.9539 15.9672 15.0082 15.9853 15.0082 15.9853C15.0926 16.0184 15.1349 15.937 15.1349 15.937C15.9732 14.7278 19.7456 9.13703 20.5115 5.72949C20.5115 5.72949 20.9277 4.08 20.5266 2.96124C20.5266 2.96124 19.9567 0.832284 17.6408 0.271397C17.6408 0.271397 16.9743 0.102528 16.2687 0C16.2687 0 13.6814 3.32913 14.9419 15.8888Z" fill="#E52428"/>
<path d="M17.0732 18.4158C17.0732 18.4158 16.9978 18.4248 16.9767 18.4821C16.9767 18.4821 16.9586 18.5605 17.0099 18.5997C17.8452 19.1998 20.3782 20.9699 21.5965 21.3137C21.5965 21.3137 23.8521 22.0826 25.8122 18.7143L17.0732 18.4158Z" fill="#E52428"/>
<path d="M16.8804 17.5684C16.8804 17.5714 16.8111 17.6166 16.8352 17.6981C16.8352 17.6981 16.8714 17.7614 16.9226 17.7614C18.2947 17.7644 23.4934 17.7704 23.6231 17.7493C23.6231 17.7493 24.2926 17.7192 25.1248 17.4025C25.1248 17.4025 26.9734 16.8145 27.9353 14.7157C27.9353 14.7157 28.7917 13.0059 28.1283 11.0036C28.1313 11.0036 20.7161 14.9871 16.8804 17.5684Z" fill="#E52428"/>
<path d="M16.1533 16.5461C16.1533 16.5461 16.1172 16.6305 16.1775 16.6878C16.1775 16.6878 16.2408 16.7301 16.2951 16.6969C17.5435 16.0757 22.7453 13.4281 24.9014 11.3293C24.9014 11.3293 26.2644 10.2316 26.3398 8.47356C26.4936 6.03099 24.0359 3.76935 24.0359 3.76935C24.0359 3.76935 19.4855 9.27569 16.1533 16.5461Z" fill="#E52428"/>
<path d="M44.1141 10.5091H38.4811V6.00995H35.9541V17.1252H38.4811V12.4873H44.1141V17.1252H46.6502V6.00995H44.1141V10.5091Z" fill="#2B2523"/>
<path d="M56.6493 12.6712C56.6493 14.6313 56.0492 15.4485 53.9534 15.4485C51.8577 15.4485 51.2395 14.6313 51.2395 12.6712V6.00995H48.7275V12.7255C48.7275 14.1338 48.8602 15.1138 49.4121 15.7109C50.3951 16.8025 51.8577 17.2428 53.9534 17.2428C56.0492 17.2428 57.4846 16.8025 58.4737 15.7109C59.0135 15.1259 59.1793 14.1488 59.1793 12.7255V6.00995H56.6463V12.6712H56.6493Z" fill="#2B2523"/>
<path d="M64.767 6.00995L59.6738 17.1252H62.3546L63.4251 14.4805H68.648L69.7547 17.1252H72.5712L67.4448 6.00995H64.767ZM64.2454 12.4963L66.0064 8.22937L67.8308 12.4963H64.2454Z" fill="#2B2523"/>
<path d="M84.5275 14.5559L81.8317 6.00995H78.8493L76.5032 14.5559L73.7199 6.00995H71.0029L75.0136 17.1252H78.0924L80.336 8.82645L82.8992 17.1252H86.0051L89.7172 6.00995H87.1269L84.5275 14.5559Z" fill="#2B2523"/>
<path d="M90.2637 11.7696C90.2637 13.7809 90.8668 15.2404 92.1062 16.1481C93.2792 17.0136 94.401 17.1251 95.8575 17.1251H100.13V15.1922H95.9781C93.9878 15.1922 93.1314 14.4594 93.1133 12.4692H100.13V10.5302H93.1314C93.237 8.78722 94.1507 7.95192 95.9781 7.95192H100.13V6.01294H95.9238C92.0549 6.00993 90.2637 7.84336 90.2637 11.7696Z" fill="#2B2523"/>
<path d="M105 6.00995H102.358V17.1221H105V6.00995Z" fill="#2B2523"/>
</svg>
