<svg width="60" height="29" viewBox="0 0 60 29" fill="none" xmlns="http://www.w3.org/2000/svg">
<path d="M14.1754 0.649292C6.34605 0.649292 0 6.99534 0 14.8246C0 22.654 6.34605 29 14.1754 29C22.0047 29 28.3507 22.654 28.3507 14.8246C28.3471 6.99534 22.0011 0.649292 14.1754 0.649292ZM17.6267 19.8095V20.8977H14.6889V20.9049H13.6007V8.71922H14.6889V19.8131H17.6267V19.8095ZM26.0378 14.8246C26.0378 21.379 20.7261 26.6907 14.1718 26.6907C7.61741 26.6907 2.30569 21.379 2.30569 14.8246C2.30569 8.2703 7.61741 2.95858 14.1718 2.95858C14.3442 2.95858 14.5165 2.96217 14.6889 2.96935V4.05037C14.5165 4.04319 14.3477 4.0396 14.1754 4.0396C8.21718 4.0396 3.3903 8.87006 3.3903 14.8246C3.3903 20.7828 8.22077 25.6097 14.1754 25.6097C19.9683 25.6097 24.6982 21.0414 24.9496 15.3095L24.9532 15.2772H17.6447V14.189H26.0235C26.0342 14.4009 26.0378 14.6092 26.0378 14.8246ZM11.4135 10.3354C11.4135 11.2548 10.6665 12.0018 9.74713 12.0018C8.82772 12.0018 8.08071 11.2548 8.08071 10.3354C8.08071 9.41596 8.82772 8.66894 9.74713 8.66894C10.6701 8.66894 11.4135 9.41237 11.4135 10.3354Z" fill="#C3004D"/>
<path d="M13.6006 8.71918V20.9049H14.6888V20.8977H17.6266V19.8095H14.6888V8.71918H13.6006Z" fill="white"/>
<path d="M17.6437 15.2771H24.9522L24.9486 15.3095C24.6936 21.0414 19.9673 25.6097 14.1743 25.6097C8.21617 25.6097 3.3893 20.7792 3.3893 14.8246C3.3893 8.86645 8.21977 4.03958 14.1743 4.03958C14.3467 4.03958 14.5191 4.04317 14.6879 4.05035V2.96933C14.5155 2.96215 14.3431 2.95856 14.1708 2.95856C7.61641 2.95856 2.30469 8.27027 2.30469 14.8246C2.30469 21.379 7.61641 26.6907 14.1708 26.6907C20.7251 26.6907 26.0368 21.379 26.0368 14.8246C26.0368 14.6127 26.0296 14.4008 26.0189 14.1889H17.6437V15.2771Z" fill="white"/>
<path d="M8.08008 10.3354C8.08008 11.2548 8.82709 12.0018 9.7465 12.0018C10.6659 12.0018 11.4129 11.2548 11.4129 10.3354C11.4129 9.41596 10.6659 8.66895 9.7465 8.66895C8.82709 8.66895 8.08008 9.41237 8.08008 10.3354Z" fill="white"/>
<path d="M39.1065 18.7213V18.4268V7.76746H35.3857V21.7812H45.5136V18.7213H39.401H39.1065Z" fill="#666666"/>
<path d="M53.3539 13.8657V16.3402H55.8356H56.1947C56.1947 16.3402 56.2235 19.4576 53.2928 19.4576C52.5494 19.4576 51.885 19.1882 51.375 18.6782C50.5813 17.8845 50.1611 16.5485 50.1611 14.8103C50.1611 11.9371 51.3032 10.2204 53.2138 10.2204C54.4098 10.2204 55.304 10.9531 55.5375 12.0664H59.4809C59.2762 10.4503 58.8344 9.60989 57.7534 8.75154C56.5898 7.85368 55.0957 7.39398 53.3108 7.39398C51.1919 7.39398 49.4213 8.04403 48.193 9.27589C46.9073 10.5616 46.2285 12.4543 46.2285 14.7528C46.2285 17.2058 46.9468 19.278 48.2541 20.5817C49.2776 21.6053 50.646 22.1476 52.2082 22.1476C55.638 22.1476 56.4282 20.0897 56.4282 20.0897V21.0342V21.7776H59.524V13.8657H53.3539Z" fill="#666666"/>
</svg>
