<svg width="78" height="19" viewBox="0 0 78 19" fill="none" xmlns="http://www.w3.org/2000/svg">
<path d="M7.12523 0.540675C9.5017 0.18147 12.0012 0.395253 14.2111 1.37468C15.7586 2.06326 17.1494 3.21545 17.8952 4.75792C18.7888 6.59372 18.6882 8.8807 17.613 10.6208C16.4869 12.4715 14.4684 13.5926 12.4114 14.1047C10.2624 14.6218 7.97415 14.6106 5.83632 14.0388C3.91848 13.518 2.0628 12.4491 0.966539 10.7476C-0.0849746 9.14047 -0.283843 7.02998 0.396037 5.24017C0.919308 3.85307 1.97331 2.71331 3.22618 1.94269C4.4082 1.20564 5.75677 0.773102 7.12523 0.540675ZM7.74048 2.78913C6.17315 3.01658 4.5561 3.65047 3.58041 4.95554C2.61217 6.24694 2.52517 8.11878 3.32064 9.51459C3.88865 10.5251 4.89045 11.2162 5.95564 11.6251C7.65099 12.2515 9.52532 12.3335 11.2928 11.988C12.6127 11.7146 13.934 11.1341 14.8053 10.0702C15.7636 8.91674 15.9699 7.23258 15.4242 5.85169C14.9942 4.75543 14.0583 3.92764 13.008 3.43793C11.3711 2.69093 9.50791 2.54551 7.74048 2.78913ZM22.6369 2.23602C24.776 0.735814 27.4881 0.237402 30.0597 0.418869C32.2944 0.581692 34.5765 1.28022 36.2656 2.80528C37.5557 3.95872 38.3748 5.65655 38.3462 7.40037C38.3984 9.21132 37.5396 10.985 36.1724 12.1546C34.5901 13.5417 32.5008 14.2203 30.4338 14.4279C27.7516 14.674 24.8816 14.2228 22.6494 12.6331C22.6158 14.7249 22.6456 16.8193 22.6357 18.9123C21.7035 18.9136 20.7725 18.9173 19.8416 18.9099C19.8428 12.95 19.8416 6.99145 19.8416 1.03163C20.7738 1.02914 21.7047 1.02914 22.6369 1.03163C22.6344 1.43309 22.6332 1.83456 22.6369 2.23602ZM27.6322 2.79037C26.1233 3.00912 24.5722 3.58584 23.5716 4.78775C22.5362 6.01203 22.3535 7.84783 23.0421 9.28092C23.5306 10.3014 24.4578 11.0496 25.4783 11.4983C27.2221 12.2416 29.1933 12.3547 31.0453 12.0166C32.3578 11.7593 33.6741 11.2062 34.5702 10.182C35.4378 9.19764 35.7597 7.78817 35.4738 6.51417C35.2215 5.23769 34.2831 4.17996 33.1446 3.59454C31.4642 2.71331 29.4892 2.55546 27.6322 2.79037ZM42.4964 2.23975C44.2849 0.952083 46.521 0.442484 48.6948 0.376609C50.993 0.37288 53.3744 0.837734 55.2972 2.15648C56.6794 3.08246 57.7533 4.52052 58.0764 6.16864C58.458 7.92737 58.0168 9.84769 56.8857 11.251C55.5794 12.8953 53.577 13.8449 51.5486 14.2377C48.4848 14.8293 45.104 14.4341 42.4877 12.643C42.4939 14.7324 42.4902 16.8205 42.4902 18.9099C41.5592 18.9173 40.6283 18.9111 39.6973 18.9136C39.6998 12.9525 39.6998 6.99145 39.6973 1.03039C40.6283 1.03039 41.5592 1.02914 42.4902 1.03163C42.4889 1.43434 42.4889 1.83705 42.4964 2.23975ZM47.4171 2.8028C45.8299 3.03647 44.1818 3.69397 43.2285 5.04628C42.2366 6.44705 42.2453 8.47799 43.2483 9.87006C43.9431 10.8308 45.012 11.4585 46.1332 11.7966C47.9727 12.336 49.9726 12.336 51.8096 11.7879C52.8835 11.4536 53.9176 10.8656 54.6049 9.95583C55.567 8.69674 55.6962 6.87586 54.9554 5.48006C54.4719 4.54786 53.6143 3.86177 52.6734 3.42923C51.0377 2.68969 49.1783 2.56167 47.4171 2.8028ZM67.4617 0.443727C69.6704 0.231187 71.9661 0.534461 73.9772 1.50146C75.4575 2.21489 76.7737 3.3733 77.4561 4.89091C78.269 6.66581 78.1683 8.83968 77.1702 10.5226C76.4655 11.7295 75.3568 12.6642 74.1176 13.2893C72.3899 14.1619 70.4323 14.5087 68.5083 14.4813C66.6054 14.4415 64.6776 14.0351 63.0108 13.0905C61.7791 12.3944 60.7052 11.3703 60.0949 10.0814C59.2087 8.24432 59.3156 5.9561 60.3995 4.22346C61.8922 1.83083 64.7509 0.682369 67.4617 0.443727ZM67.1958 2.7941C65.5725 3.03647 63.8871 3.72878 62.9499 5.14322C62.0662 6.48434 62.06 8.34997 62.9325 9.69854C63.6186 10.7737 64.7845 11.4436 65.9814 11.8041C67.7961 12.3211 69.7612 12.3248 71.5721 11.7891C72.7044 11.4386 73.8081 10.8134 74.4917 9.81911C75.2884 8.69302 75.4227 7.1667 74.9417 5.88774C74.4855 4.69826 73.4427 3.82324 72.2893 3.34223C70.6896 2.67602 68.8998 2.55421 67.1958 2.7941Z" fill="#1EA366"/>
</svg>
