<svg width="99" height="18" viewBox="0 0 99 18" fill="none" xmlns="http://www.w3.org/2000/svg">
<path d="M33.3031 0.361414H28.0292V7.22828H22.5393V0.361414H17.2654V17.6386H22.5393V10.8424H28.0292V17.6386H33.3031V0.361414ZM51.6488 14.1678V0.361414H46.3749V17.6386H55.9112L56.7047 14.1659L51.6488 14.1678ZM42.476 0.361414H37.2021V17.6386H42.476V0.361414ZM63.8564 0.361414H58.5845V17.6386H63.8564V0.361414ZM89.8586 4.77106C89.8586 3.83021 90.7994 3.39612 92.3138 3.39612C93.9755 3.39612 95.7826 3.75949 97.0103 4.26822L96.5781 0.506766C95.2032 0.218027 93.9756 0.00196421 91.7383 0.00196421C87.476 0.00196421 84.5866 1.68333 84.5866 5.20711C84.5866 11.2785 92.8245 10.0509 92.8245 12.8695C92.8245 13.9518 92.0271 14.5292 90.0766 14.5292C88.3461 14.5292 85.6689 13.9518 84.0818 13.1563L84.6613 17.1338C86.2503 17.7132 88.4149 18 90.1512 18C94.557 18 98.1672 16.5543 98.1672 12.2154C98.1672 6.43474 89.8586 7.51899 89.8586 4.77106ZM74.9817 13.5196C79.8902 13.5196 82.9976 10.9878 82.9976 6.57813C82.9976 1.73636 79.6761 0 74.2569 0C72.163 0 69.6331 0.145351 67.83 0.361414V17.6386H73.1039V13.5196H74.9817ZM77.7964 6.65081C77.7964 8.89 76.7141 10.4103 73.9662 10.4103H73.1019V3.27041C73.4083 3.25273 73.6951 3.25273 73.9662 3.25273C76.5668 3.25273 77.7964 4.48036 77.7964 6.65081ZM7.15365 13.5196C12.0642 13.5196 15.1696 10.9878 15.1696 6.57813C15.1696 1.73636 11.8481 0 6.43082 0C4.33501 0 1.80707 0.145351 0 0.361414V17.6386H5.2739V13.5196H7.15365ZM9.97228 6.65081C9.97228 8.89 8.88608 10.4103 6.14208 10.4103H5.27586V3.27041C5.58228 3.25273 5.87298 3.25273 6.14208 3.25273C8.74269 3.25273 9.97228 4.48036 9.97228 6.65081Z" fill="#0B5ED7"/>
</svg>
