<svg width="98" height="15" viewBox="0 0 98 15" fill="none" xmlns="http://www.w3.org/2000/svg">
<path d="M3.72231 4.05497C3.65452 3.77259 3.67147 3.47327 3.70536 3.32078C3.80138 2.87462 4.1064 2.37764 4.98755 2.37764C5.80657 2.37764 6.29233 2.88592 6.29233 3.64834V4.51807H9.7887V3.53539C9.7887 0.485693 7.04357 0 5.06098 0C2.57003 0 0.542248 0.824548 0.169452 3.11182C0.0621326 3.73871 0.0451873 4.29217 0.192046 4.99812C0.796427 7.86709 5.77833 8.69164 6.50133 10.5045C6.63689 10.8434 6.59735 11.2726 6.52957 11.538C6.4166 12.0124 6.10029 12.4868 5.16265 12.4868C4.28715 12.4868 3.76184 11.9785 3.76184 11.2105L3.7562 9.86069H0V10.9281C0 14.0625 2.46271 15 5.09487 15C7.62536 15 9.70398 14.1359 10.0429 11.7922C10.2123 10.5836 10.0824 9.79857 10.0316 9.49925C9.4385 6.56815 4.12334 5.69842 3.72231 4.05497ZM49.2881 4.0945C49.2259 3.81777 49.2429 3.5241 49.2768 3.37161C49.3784 2.9198 49.6778 2.43411 50.5477 2.43411C51.3554 2.43411 51.8299 2.93675 51.8299 3.69352V4.55196H55.2867V3.56928C55.2867 0.553464 52.5811 0.0790663 50.6211 0.0790663C48.1527 0.0790663 46.1363 0.892319 45.7691 3.16265C45.6731 3.77824 45.6505 4.3317 45.803 5.02636C46.4017 7.86145 51.3328 8.68035 52.0501 10.4706C52.1801 10.8095 52.1405 11.2444 52.0784 11.4985C51.9711 11.9616 51.6604 12.4303 50.7284 12.4303C49.8586 12.4303 49.3333 11.9277 49.3333 11.1766V9.83246H45.611V10.8998C45.611 13.9947 48.0398 14.9322 50.6493 14.9322C53.1516 14.9322 55.2189 14.0794 55.5522 11.7583C55.7103 10.561 55.5917 9.78163 55.5296 9.48795C54.9421 6.58509 49.6891 5.71536 49.2881 4.0945ZM81.0999 11.7244L77.8013 0.44616H72.6047V14.3053H76.0446L75.8469 2.66566L79.3885 14.3053H84.376V0.44616H80.9135L81.0999 11.7244ZM15.0022 0.44616L12.4096 14.4522H16.194L18.1484 1.48532L20.0575 14.4522H23.8194L21.2324 0.44616H15.0022ZM36.1612 0.44616L34.3932 11.3968L32.6309 0.44616H26.9147L26.6097 14.4522H30.1117L30.2077 1.48532L32.6139 14.4522H36.1668L38.5787 1.48532L38.6747 14.4522H42.1824L41.8661 0.44616H36.1612ZM68.7186 0.44616H65.1771V10.8095C65.1827 10.9902 65.1771 11.1879 65.1432 11.3404C65.0697 11.6905 64.776 12.3569 63.7988 12.3569C62.833 12.3569 62.528 11.6905 62.4602 11.3404C62.4263 11.1879 62.4206 10.9902 62.4263 10.8095V0.44616H58.8847V10.4876C58.8791 10.7474 58.9017 11.2782 58.9186 11.4138C59.1615 14.0286 61.2232 14.8814 63.7988 14.8814C66.3802 14.8814 68.4362 14.0343 68.6904 11.4138C68.7073 11.2726 68.7356 10.7474 68.7186 10.4876V0.44616ZM93.0463 6.59074V8.63517H94.481V10.6627C94.4867 10.8434 94.4754 11.041 94.4472 11.1935C94.3907 11.5719 94.0292 12.2157 93.0125 12.2157C92.0014 12.2157 91.6455 11.5719 91.5834 11.1935C91.5608 11.041 91.5495 10.8434 91.5495 10.6627V4.25828C91.5495 4.03238 91.5665 3.78389 91.6116 3.59752C91.6851 3.25866 91.9844 2.58095 93.0068 2.58095C94.0744 2.58095 94.3455 3.29255 94.4076 3.59752C94.4472 3.80083 94.4472 4.13968 94.4472 4.13968V4.9134H97.9774V4.45595C97.9774 4.45595 97.9944 3.9759 97.9492 3.52974C97.6837 0.897967 95.5147 0.0677711 93.035 0.0677711C90.5497 0.0677711 88.4259 0.903614 88.1153 3.52974C88.087 3.76694 88.0418 4.20181 88.0418 4.45595V10.3407C88.0418 10.6005 88.0531 10.7982 88.0983 11.2669C88.3299 13.8253 90.5441 14.7289 93.0238 14.7289C95.5147 14.7289 97.7119 13.8253 97.9492 11.2669C97.9887 10.7982 97.9944 10.6005 98 10.3407V6.59074H93.0463Z" fill="#1E4BC6"/>
</svg>
