<svg width="89" height="16" viewBox="0 0 89 16" fill="none" xmlns="http://www.w3.org/2000/svg">
<path d="M81.1363 0.885742V2.61817H82.3131C82.6633 2.61817 82.7604 2.97095 82.6079 3.15868L79.2665 7.06326L79.1733 7.05192L75.9201 3.15868C75.682 2.87016 75.8735 2.61817 76.1293 2.61817H77.2884V0.885742H67.6914V2.61817H69.3986C70.1433 2.61817 70.6246 3.08561 70.9055 3.39555C71.1311 3.6362 76.0171 9.17744 76.1293 9.33494C76.2502 9.48613 76.2502 9.51133 76.2502 9.57811V12.3248L76.2212 12.7066C76.1482 12.8477 76.0297 12.9812 75.842 13.0316L75.3657 13.0644H73.6547V14.8069H83.1976V13.0606H81.3933L80.9196 13.0329C80.7293 12.9825 80.5983 12.8502 80.5479 12.7078L80.5101 12.326V9.57937L80.5781 9.31856C80.7079 9.16736 85.6469 3.53037 85.8724 3.2809C86.3499 2.73534 86.6082 2.61817 87.2445 2.61817H88.9996V0.885742H81.1363Z" fill="#2D2D2D"/>
<path d="M57.8269 2.61817H59.6299C60.4451 2.61817 60.5912 2.94449 60.5988 3.70046L60.6983 9.51133L51.1328 0.885742H44.29V2.62069H45.8108C46.9095 2.62069 46.9876 3.23806 46.9876 3.76472V11.9115C46.9876 12.4016 47.0203 13.0644 46.3148 13.0644H44.4299V14.8069H52.4696V13.0656H50.5079C49.728 13.0656 49.6864 12.7166 49.6725 11.9455V4.97427L60.6971 14.8081H63.5017L63.3543 3.70172C63.3707 2.89535 63.4173 2.61943 64.2501 2.61943H66.009V0.885742H57.8269V2.61817Z" fill="#2D2D2D"/>
<path d="M15.4835 6.92592C15.0299 6.71803 14.3281 6.461 13.7536 6.32745C12.6272 6.04396 10.0922 5.70503 8.88766 5.58282C7.62015 5.44422 5.40895 5.26405 4.53454 4.9919C4.26492 4.91127 3.71432 4.64542 3.71432 4.01797C3.71432 3.57195 3.97261 3.18514 4.46147 2.87268C5.23633 2.38634 6.82512 2.08773 8.46053 2.08773C10.4109 2.08269 12.0539 2.51485 13.0959 2.98607C13.455 3.15868 13.8707 3.37791 14.2046 3.6488C14.5776 3.95245 15.0954 4.58494 15.2882 5.46564H17.0508V0.69675H15.0904V1.24987C15.0904 1.43256 14.9064 1.65809 14.5473 1.47414C13.6742 1.00922 11.1959 0.0163793 8.14933 0C6.42572 0 4.46147 0.337665 2.80842 1.07599C1.26877 1.7614 0 2.87142 0 4.71472C0 6.3665 1.05331 7.33414 1.02182 7.30264C1.47666 7.71717 2.19609 8.424 4.08222 8.83096C4.92009 9.01617 6.71677 9.29084 8.51597 9.49117C10.29 9.67512 12.0489 9.85781 12.7645 10.0329C13.3315 10.1778 14.2764 10.3769 14.2764 11.439C14.2764 12.51 13.276 12.8313 13.0971 12.8993C12.9195 12.9724 11.7238 13.5205 9.55543 13.5205C7.95782 13.5205 6.04144 13.0417 5.34091 12.8023C4.54084 12.51 3.69668 12.1232 2.90795 11.1556C2.70888 10.9199 2.41154 10.2597 2.41154 9.61212H0.437201V15.0929H2.61565V14.3508C2.61565 14.279 2.72904 13.9224 3.08561 14.0938C3.53793 14.3079 4.87095 14.827 6.27453 15.1181C7.41352 15.3575 8.15185 15.525 9.56929 15.525C11.8888 15.525 13.1362 15.1508 13.9904 14.9064C14.8182 14.667 15.8211 14.25 16.6225 13.6036C17.0672 13.2584 18.0248 12.3563 18.0248 10.7221C18.0248 9.14972 17.192 8.17579 16.8908 7.88348C16.4876 7.4803 16 7.16657 15.4835 6.92592Z" fill="#2D2D2D"/>
<path d="M39.938 2.75676C37.8566 0.863063 35.1301 0 31.7043 0C28.6313 0 25.3529 1.06339 23.4945 2.74794C22.0216 4.09608 21.2568 5.95954 21.2568 7.82678C21.2568 9.71418 21.9964 11.555 23.4945 12.9081C25.5029 14.7048 28.4902 15.6737 31.7043 15.6737C34.9449 15.6737 38.0015 14.7199 39.938 12.9081C41.3832 11.5751 42.1417 9.63858 42.1417 7.82678C42.1417 5.94946 41.426 4.1112 39.938 2.75676ZM36.1141 11.9128C35.0091 13.0077 33.4304 13.6062 31.7043 13.6062C30.0147 13.6062 28.3932 13.0039 27.292 11.9128C26.2487 10.862 25.6893 9.39289 25.6893 7.82678C25.6893 6.25185 26.2424 4.77645 27.292 3.72818C28.3932 2.64715 30.0147 2.03985 31.7043 2.03985C33.3952 2.03985 35.0243 2.65723 36.1141 3.72818C37.1775 4.77519 37.7306 6.23799 37.7306 7.82678C37.7319 9.46975 37.2178 10.8103 36.1141 11.9128Z" fill="#2D2D2D"/>
</svg>
